# xmcd
#
# Track frame offsets: 
#        150
#        30060
#        52782
#        73530
#        90457
#        113957
#        139412
#        178095
#        212430
#        246165
#        265345
#        288827
#
# Disc length: 4110 seconds
#
# Revision: 5
# Processed by: cddbd v1.5.1PL0 Copyright (c) Steve Scherf et al.
# Submitted via: ExactAudioCopy v0.95a3
#
DISCID=a1100c0c
DTITLE=Charles Lloyd - The Water Is Wide
DYEAR=2000
DGENRE=Jazz
TTITLE0=Georgia
TTITLE1=The Water Is Wide
TTITLE2=Black Butterfly
TTITLE3=Ballade And Allegro
TTITLE4=Figure In Blue
TTITLE5=Lotus Blossom
TTITLE6=The Monk And The Mermaid
TTITLE7=Song Of Her
TTITLE8=Lady Day
TTITLE9=Heaven
TTITLE10=There Is A Balm In Gilead
TTITLE11=Prayer
EXTD=YEAR: 2000
EXTT0=
EXTT1=
EXTT2=
EXTT3=
EXTT4=
EXTT5=
EXTT6=
EXTT7=
EXTT8=
EXTT9=
EXTT10=
EXTT11=
PLAYORDER=
